<?xml version="1.0" encoding="utf-8"?>
<!DOCTYPE svg PUBLIC "-//W3C//DTD SVG 1.1//EN" "http://www.w3.org/Graphics/SVG/1.1/DTD/svg11.dtd">
<svg version="1.1" id="Layer_1" xmlns="http://www.w3.org/2000/svg" xmlns:xlink="http://www.w3.org/1999/xlink" x="0px" y="0px"
	 width="142px" height="98px" viewBox="3.9 5.3 142 98" enable-background="new 3.9 5.3 142 98" xml:space="preserve">
<g>
	<rect x="3.9" y="90.2" fill="#034EA1" width="142" height="13"/>
	<path fill="#FFFFFF" d="M34.1,92.8h-1.8l-2.5,7.7h1.4l0.7-2.2h2.4l0.7,2.2h1.5L34.1,92.8z M32.2,97.3l0.6-1.9
		c0.1-0.5,0.3-1,0.4-1.4h0c0.1,0.4,0.2,1,0.4,1.4l0.6,1.9H32.2z"/>
	<path fill="#FFFFFF" d="M47.2,92.7c-2.2,0-3.6,1.7-3.6,4c0,2.2,1.4,3.9,3.5,3.9c2.1,0,3.7-1.5,3.7-4C50.8,94.4,49.5,92.7,47.2,92.7
		z M47.2,99.5c-1.3,0-2.1-1.2-2.1-2.8c0-1.6,0.7-2.9,2.1-2.9c1.4,0,2.1,1.4,2.1,2.8C49.3,98.2,48.6,99.5,47.2,99.5z"/>
	<polygon fill="#FFFFFF" points="67.6,95.5 66.6,95.5 65.2,97.6 66.6,99.8 67.6,99.8 66.2,97.6 67.6,95.5 	"/>
	<polygon fill="#FFFFFF" points="69.7,95.5 69.7,95.5 68.3,97.6 69.7,99.8 68.7,99.8 67.3,97.6 68.7,95.5 	"/>
	<path fill="#FFFFFF" d="M73,92.8v7.7h1.6l1.9-3.2c0.5-0.8,1-1.8,1.4-2.6h0c-0.1,1-0.1,2-0.1,3.2v2.7h1.3v-7.7h-1.4l-2,3.4
		c-0.5,0.9-1,1.8-1.4,2.6l0,0c0.1-1,0.1-2.1,0.1-3.4v-2.7L73,92.8L73,92.8L73,92.8z"/>
	<path fill="#FFFFFF" d="M95,99.2c-0.4,0.2-1,0.3-1.5,0.3c-1.7,0-2.7-1.1-2.7-2.8c0-1.8,1.1-2.8,2.7-2.8c0.6,0,1.1,0.1,1.5,0.3
		l0.3-1.1c-0.3-0.1-0.9-0.3-1.9-0.3c-2.3,0-4.1,1.5-4.1,4c0,2.3,1.5,3.9,3.9,3.9c0.9,0,1.6-0.2,2-0.3L95,99.2L95,99.2L95,99.2z"/>
	<path fill="#FFFFFF" d="M110.6,99.2c-0.4,0.2-1,0.3-1.5,0.3c-1.7,0-2.7-1.1-2.7-2.8c0-1.8,1.1-2.8,2.7-2.8c0.6,0,1.1,0.1,1.5,0.3
		l0.3-1.1c-0.3-0.1-0.9-0.3-1.9-0.3c-2.3,0-4.1,1.5-4.1,4c0,2.3,1.5,3.9,3.9,3.9c0.9,0,1.6-0.2,2-0.3L110.6,99.2L110.6,99.2
		L110.6,99.2z"/>
	<polygon fill="#FFFFFF" points="115.1,97.6 113.7,99.8 114.7,99.8 116.1,97.6 114.7,95.5 113.7,95.5 115.1,97.6 	"/>
	<polygon fill="#FFFFFF" points="117.2,97.6 117.2,97.6 115.7,95.5 116.7,95.5 118.2,97.6 116.7,99.8 115.7,99.8 	"/>
	<path fill="#034EA1" d="M76.8,15.1c0.3,0,0.7,0.1,1,0.1l0.8-2.8c-0.9-0.1-1.8-0.2-2.7-0.3c-4.9-0.6-9.7-1.2-14.4-1.6l0.6-2.2
		c4.6,0.1,9.3,0.3,14.2,0.6c28.4,1.9,50.6,9.3,49.6,22.5c-1,13.2-24.9,16.4-53,14.1L72,45.3l-0.8,2.8c0.9,0.1,1.7,0.2,2.6,0.3
		c4.9,0.6,9.7,1.2,14.4,1.6l-0.6,2.2c-4.5-0.1-9.3-0.3-14.2-0.6C45,49.7,22.8,42.3,23.8,29.1C24.8,15.9,48.7,12.8,76.8,15.1
		L76.8,15.1z M75,22.9c0.2,0,0.5,0,0.7,0l1.5-5.4l-0.5,0c-22.7-1.2-45.4,3.1-45.8,12.2c-0.4,8.5,17.3,15.1,38.2,18.1L72,36.9
		c-2.5-1.2-4.3-3.7-4.3-6.7C67.7,26.2,71,22.9,75,22.9L75,22.9z M77.9,23.5c2.6,1.1,4.5,3.7,4.5,6.8c0,4.1-3.3,7.3-7.3,7.3
		c-0.3,0-0.6,0-0.9-0.1L72.7,43l0.4,0c22.7,1.2,45.4-3.1,45.8-12.2c0.4-8.4-17.3-15-38-18.1L77.9,23.5L77.9,23.5z M92.3,48.7
		c-1.4,0-2.5,1.1-2.5,2.5c0,1.4,1.1,2.5,2.5,2.5s2.5-1.1,2.5-2.5C94.8,49.8,93.7,48.7,92.3,48.7L92.3,48.7z M57.9,6.8
		c-1.4,0-2.5,1.1-2.5,2.5s1.1,2.5,2.5,2.5s2.5-1.1,2.5-2.5S59.3,6.8,57.9,6.8L57.9,6.8z M75,25.1c-2.8,0-5.2,2.3-5.2,5.2
		s2.3,5.2,5.2,5.2s5.2-2.3,5.2-5.2S77.9,25.1,75,25.1z"/>
	<path fill="#D1232A" d="M4.9,85.4h5v-6.5c0.3,0,0.8,0.1,1.2,0.1c2.6,0,4.8-0.6,6.3-2c1.2-1.1,1.8-2.8,1.8-4.7
		c0-1.9-0.9-3.6-2.2-4.6c-1.3-1-3.3-1.5-6-1.5c-2.9,0-4.9,0.2-6.3,0.4L4.9,85.4L4.9,85.4L4.9,85.4z M9.9,70.2
		c0.3-0.1,0.8-0.1,1.5-0.1c1.9,0,2.9,1,2.9,2.4c0,1.6-1.2,2.6-3.2,2.6c-0.5,0-0.9,0-1.2-0.1L9.9,70.2L9.9,70.2L9.9,70.2z M33.8,73.6
		h-6.8v-3.1h7.2v-4.1H21.8v19h12.7v-4.2h-7.6v-3.5h6.8L33.8,73.6L33.8,73.6L33.8,73.6z M37.4,66.4v19h23.1v-19h-5v14.8h-4.1V66.4h-5
		v14.8h-4.1V66.4H37.4L37.4,66.4L37.4,66.4z M75.9,73.6H69v-3.1h7.2v-4.1H63.9v19h12.7v-4.2H69v-3.5h6.8L75.9,73.6L75.9,73.6
		L75.9,73.6z M83.1,85.4h5.1V70.6h4.9v-4.3H78.2v4.3h4.8L83.1,85.4L83.1,85.4L83.1,85.4z M95.5,66.4v19h5.1v-7.5h6.2v7.5h5.1v-19
		h-5.1v7h-6.2v-7H95.5L95.5,66.4L95.5,66.4z M127.2,73.6h-6.8v-3.1h7.2v-4.1h-12.3v19h12.7v-4.2h-7.6v-3.5h6.8L127.2,73.6
		L127.2,73.6L127.2,73.6z M130.9,85.3c1,0.2,2.7,0.3,5,0.3c4.1,0,6.4-0.6,7.9-1.7c1.3-1,2.1-2.4,2.1-4.1c0-2.3-1.4-4-3.7-4.6v-0.1
		c2.2-0.8,3.1-2.4,3.1-4c0-1.8-1.1-3.2-2.6-3.9c-1.5-0.8-3.1-0.9-5.8-0.9c-2.3,0-4.8,0.2-6,0.4V85.3L130.9,85.3L130.9,85.3z
		 M135.9,70c0.3-0.1,0.8-0.1,1.7-0.1c1.7,0,2.6,0.7,2.6,1.8c0,1.2-1,2-3.2,2h-1L135.9,70L135.9,70L135.9,70z M135.9,77.3h1.2
		c1.9,0,3.4,0.6,3.4,2.2c0,1.7-1.4,2.3-3.1,2.3c-0.6,0-1.1,0-1.5-0.1V77.3L135.9,77.3z"/>
</g>
</svg>
